<svg xmlns="http://www.w3.org/2000/svg" xmlns:xlink="http://www.w3.org/1999/xlink" width="500" zoomAndPan="magnify" viewBox="0 0 375 374.999991" height="500" preserveAspectRatio="xMidYMid meet" version="1.0"><defs><g/><clipPath id="b4bca1c28f"><path d="M 137.800781 96.195312 L 360.386719 96.195312 L 360.386719 260.003906 L 137.800781 260.003906 Z M 137.800781 96.195312 " clip-rule="nonzero"/></clipPath></defs><rect x="-37.5" width="450" fill="#ffffff" y="-37.499999" height="449.999989" fill-opacity="1"/><rect x="-37.5" width="450" fill="#ffffff" y="-37.499999" height="449.999989" fill-opacity="1"/><g clip-path="url(#b4bca1c28f)"><path fill="#bb182f" d="M 174.941406 96.195312 C 154.554688 96.195312 137.894531 112.855469 137.894531 133.242188 L 137.894531 223.210938 C 137.894531 243.597656 154.554688 260.257812 174.941406 260.257812 L 323.125 260.257812 C 343.511719 260.257812 360.171875 243.597656 360.171875 223.210938 L 360.171875 133.242188 C 360.171875 112.855469 343.511719 96.195312 323.125 96.195312 Z M 174.941406 112.074219 L 323.125 112.074219 C 334.992188 112.074219 344.296875 121.378906 344.296875 133.242188 L 344.296875 223.210938 C 344.296875 235.078125 334.992188 244.382812 323.125 244.382812 L 174.941406 244.382812 C 163.074219 244.382812 153.769531 235.078125 153.769531 223.210938 L 153.769531 133.242188 C 153.769531 121.378906 163.074219 112.074219 174.941406 112.074219 Z M 230.757812 135.886719 C 230.226562 135.871094 229.699219 135.910156 229.175781 136 C 228.648438 136.089844 228.140625 136.230469 227.644531 136.421875 C 227.148438 136.613281 226.675781 136.851562 226.226562 137.140625 C 225.78125 137.425781 225.367188 137.753906 224.984375 138.125 C 224.601562 138.496094 224.261719 138.898438 223.960938 139.339844 C 223.660156 139.777344 223.40625 140.242188 223.199219 140.730469 C 222.992188 141.222656 222.835938 141.726562 222.730469 142.246094 C 222.625 142.769531 222.570312 143.296875 222.570312 143.828125 L 222.570312 212.628906 C 222.570312 213.117188 222.609375 213.601562 222.699219 214.082031 C 222.785156 214.5625 222.914062 215.03125 223.085938 215.484375 C 223.261719 215.941406 223.472656 216.378906 223.726562 216.796875 C 223.980469 217.214844 224.269531 217.605469 224.597656 217.96875 C 224.921875 218.332031 225.277344 218.664062 225.664062 218.960938 C 226.054688 219.257812 226.464844 219.519531 226.898438 219.738281 C 227.332031 219.960938 227.785156 220.144531 228.253906 220.28125 C 228.71875 220.421875 229.199219 220.515625 229.683594 220.566406 C 231.320312 220.742188 232.863281 220.441406 234.3125 219.65625 L 297.820312 185.257812 C 298.453125 184.917969 299.027344 184.5 299.542969 184.003906 C 300.0625 183.507812 300.503906 182.953125 300.871094 182.335938 C 301.238281 181.722656 301.515625 181.070312 301.707031 180.378906 C 301.898438 179.6875 301.992188 178.984375 301.992188 178.269531 C 301.992188 177.550781 301.898438 176.847656 301.707031 176.160156 C 301.515625 175.46875 301.238281 174.816406 300.871094 174.199219 C 300.503906 173.585938 300.0625 173.03125 299.542969 172.535156 C 299.027344 172.039062 298.453125 171.621094 297.820312 171.28125 L 234.3125 136.882812 C 233.207031 136.265625 232.023438 135.9375 230.757812 135.886719 Z M 238.449219 157.222656 L 277.3125 178.226562 L 238.449219 199.3125 Z M 238.449219 157.222656 " fill-opacity="1" fill-rule="nonzero"/></g><g fill="#bb182f" fill-opacity="1"><g transform="translate(11.574853, 208.264963)"><g><path d="M 3.9375 -27.46875 C 3.9375 -32.644531 4.789062 -37.363281 6.5 -41.625 C 8.21875 -45.894531 10.9375 -49.304688 14.65625 -51.859375 C 18.375 -54.410156 23.226562 -55.6875 29.21875 -55.6875 C 33.957031 -55.6875 37.929688 -54.8125 41.140625 -53.0625 C 44.347656 -51.3125 46.863281 -48.832031 48.6875 -45.625 C 48.6875 -49.195312 47.71875 -52.675781 45.78125 -56.0625 C 43.851562 -59.457031 41.140625 -62.554688 37.640625 -65.359375 C 34.140625 -68.171875 30.050781 -70.453125 25.375 -72.203125 L 32.28125 -82.828125 C 43.507812 -78.734375 51.710938 -72.65625 56.890625 -64.59375 C 62.066406 -56.539062 64.65625 -46.425781 64.65625 -34.25 C 64.65625 -22.0625 62.210938 -13.015625 57.328125 -7.109375 C 52.441406 -1.203125 44.820312 1.75 34.46875 1.75 C 27.164062 1.75 21.269531 0.421875 16.78125 -2.234375 C 12.300781 -4.898438 9.039062 -8.457031 7 -12.90625 C 4.957031 -17.351562 3.9375 -22.207031 3.9375 -27.46875 Z M 20.234375 -27.34375 C 20.234375 -21.726562 21.269531 -17.585938 23.34375 -14.921875 C 25.425781 -12.265625 29.023438 -10.9375 34.140625 -10.9375 C 39.316406 -10.9375 43.035156 -12.285156 45.296875 -14.984375 C 47.554688 -17.679688 48.6875 -21.800781 48.6875 -27.34375 C 48.6875 -32.96875 47.554688 -37.109375 45.296875 -39.765625 C 43.035156 -42.429688 39.316406 -43.765625 34.140625 -43.765625 C 29.023438 -43.765625 25.425781 -42.453125 23.34375 -39.828125 C 21.269531 -37.203125 20.234375 -33.039062 20.234375 -27.34375 Z M 20.234375 -27.34375 "/></g></g></g><g fill="#bb182f" fill-opacity="1"><g transform="translate(80.17011, 208.264963)"><g><path d="M 31.296875 0 C 26.109375 0 22.054688 -0.726562 19.140625 -2.1875 C 16.222656 -3.644531 14.160156 -5.847656 12.953125 -8.796875 C 11.753906 -11.753906 11.15625 -15.382812 11.15625 -19.6875 L 11.15625 -42.453125 L 1.203125 -42.453125 L 1.203125 -50.21875 L 12.46875 -54.8125 L 19.140625 -67.71875 L 27.34375 -67.71875 L 27.34375 -54.703125 L 43.109375 -54.703125 L 43.109375 -42.453125 L 27.34375 -42.453125 L 27.34375 -12.90625 L 41.578125 -12.90625 L 41.578125 0 Z M 31.296875 0 "/></g></g></g></svg>